<?xml version="1.0" encoding="utf-8"?>
<!-- Generator: Adobe Illustrator 18.0.0, SVG Export Plug-In . SVG Version: 6.00 Build 0)  -->
<!DOCTYPE svg PUBLIC "-//W3C//DTD SVG 1.1//EN" "http://www.w3.org/Graphics/SVG/1.1/DTD/svg11.dtd">
<svg version="1.1" id="Layer_1" xmlns="http://www.w3.org/2000/svg" xmlns:xlink="http://www.w3.org/1999/xlink" x="0px" y="0px"
	 viewBox="0 0 400 200" enable-background="new 0 0 400 200" xml:space="preserve">
<polygon fill="#FFFFFF" points="0,61.6 0,116 10.8,116 10.8,72.4 38.4,72.4 38.4,116 81.6,116 81.6,61.6 "/>
<polygon opacity="0.7" fill="#FFFFFF" enable-background="new    " points="38.4,116 16.4,138 16.4,94.4 38.4,72.4 "/>
<g>
	<path fill="#FFFFFF" d="M130.4,106.4c-0.4,1.6-1.2,3.2-2.4,4.8c-1.2,1.6-2.8,2.8-5.2,3.6c-2.4,0.8-5.2,1.6-8.8,1.6
		c-1.6,0-3.2,0-4.8-0.4c-1.6-0.4-3.2-0.8-4.4-2c-1.2-0.8-2.4-2-3.2-3.2c-0.8-1.2-1.2-2.8-1.6-4.8h8.8c0.4,1.6,1.2,2.8,2.4,3.6
		c1.2,0.8,2.8,0.8,4,0.8c2.4,0,4.4-0.8,5.6-2.4s1.6-3.6,1.6-5.6V98l0,0c-0.8,1.6-2.4,2.8-4,3.6s-3.6,1.2-5.6,1.2
		c-2.4,0-4.4-0.4-6.4-1.2c-1.6-0.8-3.2-2-4.4-3.6s-2-3.2-2.4-5.2s-0.8-4-0.8-6.4c0-2,0.4-4,0.8-6s1.6-3.6,2.8-5.2
		c1.2-1.6,2.8-2.8,4.4-3.6c1.6-0.8,3.6-1.2,6-1.2c2,0,4,0.4,5.6,1.2c1.6,0.8,2.8,2,4,4l0,0v-4.4h8.4v30.4
		C130.8,103.2,130.4,104.8,130.4,106.4z M118,95.6c0.8-0.4,1.6-1.2,2.4-2s1.2-1.6,1.2-2.8c0.4-1.2,0.4-2.4,0.4-3.2
		c0-1.2,0-2.8-0.4-3.6c-0.4-1.2-0.8-2.4-1.2-3.2c-0.4-0.8-1.2-1.6-2.4-2.4c-0.8-0.4-2.4-0.8-3.6-0.8s-2.4,0.4-3.2,0.8
		c-0.8,0.4-1.6,1.2-2.4,2c-0.4,0.4-0.8,1.6-0.8,2.4c-0.4,1.2-0.4,2.4-0.4,3.6c0,1.2,0,2.4,0.4,3.6s0.8,2.4,1.2,3.2
		c0.4,0.8,1.2,1.6,2.4,2.4c0.4,0.4,1.6,0.8,3.2,0.8C116,96.4,117.2,96,118,95.6z"/>
	<path fill="#FFFFFF" d="M135.2,81.6c0-2,0.8-4,1.6-5.2s2-2.4,3.6-3.2c1.2-0.8,3.2-1.6,4.8-1.6c1.6-0.4,3.6-0.4,5.2-0.4
		c1.6,0,3.2,0,4.8,0.4c2-0.4,3.6,0,4.8,0.4c1.2,0.8,2.4,1.6,3.2,2.8c0.8,1.2,1.2,2.8,1.2,4.8v16.8c0,1.6,0,2.8,0.4,4
		c0,1.2,0.4,2.4,0.8,3.2h-8.8c0-0.4-0.4-0.8-0.4-1.6c0-0.4,0-1.2-0.4-1.6c-1.2,1.6-3.2,2.4-4.8,3.2c-2,0.4-4,0.8-6,0.8
		c-1.6,0-3.2,0-4.4-0.4c-1.2-0.4-2.4-0.8-3.6-1.6c-0.8-0.8-1.6-1.6-2.4-3.2c-0.4-1.2-0.8-2.8-0.8-4.4c0-1.6,0.4-3.2,0.8-4.4
		c0.8-1.2,1.6-2,2.4-2.8c1.2-0.8,2.4-1.2,3.6-1.6c1.2-0.4,2.8-0.8,4-0.8c1.2-0.4,2.8-0.4,4-0.4s2.4-0.4,3.6-0.4
		c0.8-0.4,1.6-0.8,2.4-1.2c0.8-0.8,1.2-1.6,1.2-2.4c0-0.8,0-1.6-0.4-2.4c-0.4-0.4-0.8-0.8-1.2-1.2c-0.4-0.4-1.2-0.4-1.6-0.8
		c-0.8,0-1.6,0-2.4,0c-1.6,0-3.2,0.4-4,1.2c-0.8,0.8-1.6,2-1.6,3.6L135.2,81.6L135.2,81.6z M155.6,88c-0.4,0.4-0.8,0.4-1.2,0.8
		c-0.4,0-1.2,0.4-1.6,0.4c-0.8,0-1.2,0.4-2,0.4s-1.2,0-2,0.4c-0.8,0-1.2,0.4-2,0.4c-0.8,0.4-1.2,0.4-1.6,0.8
		c-0.8,0.4-1.2,0.8-1.6,1.6c-0.4,0.4-0.4,1.2-0.4,2c0,0.8,0,1.6,0.4,2c0.4,0.4,0.8,0.8,1.2,1.2s1.2,0.4,1.6,0.8c0.8,0,1.2,0,2,0
		c1.6,0,3.2-0.4,4-0.8c0.8-0.4,1.6-1.2,2-2s0.8-1.6,0.8-2.4s0-1.6,0-2V88H155.6z"/>
	<path fill="#FFFFFF" d="M187.2,71.6v6h-6.4v16c0,1.6,0.4,2.4,0.8,3.2c0.4,0.4,1.6,0.8,3.2,0.8c0.4,0,0.8,0,1.6,0c0.4,0,0.8,0,1.2,0
		v6.4c-0.8,0-1.6,0.4-2.4,0.4c-0.8,0-1.6,0-2.8,0s-2.8,0-4-0.4c-1.2,0-2.4-0.4-3.2-1.2c-0.8-0.4-1.6-1.2-2.4-2.4
		c-0.4-0.8-0.8-2.4-0.8-4V77.6h-5.2v-6h5.2v-2l8.8-8.8V72L187.2,71.6L187.2,71.6z"/>
	<path fill="#FFFFFF" d="M198.4,96c1.2,1.2,3.2,2,6,2c1.6,0,3.2-0.4,4.8-1.2c1.2-0.8,2-2,2.4-2.8h8c-1.2,4-3.2,6.8-6,8.4
		s-5.6,2.4-9.6,2.4c-2.4,0-4.8-0.4-6.8-1.2c-2-0.8-3.6-2-5.2-3.6c-1.2-1.6-2.4-3.2-3.2-5.2s-1.2-4.4-1.2-6.8c0-2.4,0.4-4.8,1.2-6.8
		s2-4,3.2-5.2c1.6-1.6,3.2-2.8,5.2-3.6c2-0.8,4.4-1.2,6.8-1.2c2.8,0,5.2,0.4,7.2,1.6s3.6,2.4,5.2,4.4c1.2,1.6,2.4,4,2.8,6
		c0.4,2.4,0.8,4.8,0.8,7.2h-23.2C196.4,92.8,197.2,94.8,198.4,96z M208.4,79.2c-1.2-1.2-2.8-1.6-4.8-1.6c-1.2,0-2.8,0.4-3.6,0.8
		s-1.6,1.2-2.4,1.6c-0.4,0.8-0.8,1.6-1.2,2.4c-0.4,0.8-0.4,1.6-0.4,2h14.4C210.4,82,209.6,80.4,208.4,79.2z"/>
	<path fill="#FFFFFF" d="M249.6,104l-6-21.6l0,0L238,104h-9.2l-10.4-32.4h9.6l6,22l0,0l5.2-22h8.8l5.6,22l0,0l6-22h9.2l-10,32.4
		H249.6z"/>
	<path fill="#FFFFFF" d="M269.2,81.6c0-2,0.8-4,1.6-5.2c0.8-1.2,2-2.4,3.6-3.2c1.2-0.8,3.2-1.6,4.8-1.6c1.6-0.4,3.6-0.4,5.2-0.4
		s3.2,0,4.8,0.4c1.6,0.4,3.2,0.8,4.4,1.2c1.2,0.8,2.4,1.6,3.2,2.8c0.8,1.2,1.2,2.8,1.2,4.8v16.8c0,1.6,0,2.8,0.4,4
		c0,1.2,0.4,2.4,0.8,3.2h-8.8c0-0.4-0.4-0.8-0.4-1.6c0-0.4,0-1.2-0.4-1.6c-1.2,1.6-3.2,2.4-4.8,3.2c-2,0.4-4,0.8-6,0.8
		c-1.6,0-3.2,0-4.4-0.4c-1.2-0.4-2.4-0.8-3.6-1.6c-0.8-0.8-1.6-1.6-2.4-3.2c-0.4-1.2-0.8-2.8-0.8-4.4c0-1.6,0.4-3.2,0.8-4.4
		c0.8-1.2,1.6-2,2.4-2.8c1.2-0.8,2.4-1.2,3.6-1.6s2.8-0.8,4-0.8c1.2-0.4,2.8-0.4,4-0.4s2.4-0.4,3.6-0.4c0.8-0.4,1.6-0.8,2.4-1.2
		c0.4-0.4,0.8-1.2,0.8-2c0-0.8,0-1.6-0.4-2.4c-0.4-0.4-0.8-0.8-1.2-1.2c-0.4-0.4-1.2-0.4-1.6-0.8c-0.8,0-1.6,0-2.4,0
		c-1.6,0-3.2,0.4-4,1.2s-1.6,2-1.6,3.6L269.2,81.6L269.2,81.6z M289.6,88c-0.4,0.4-0.8,0.4-1.2,0.8c-0.4,0-1.2,0.4-1.6,0.4
		c-0.8,0-1.2,0.4-2,0.4s-1.2,0-2,0.4c-0.8,0-1.2,0.4-2,0.4c-0.8,0.4-1.2,0.4-1.6,0.8s-0.8,0.8-1.2,1.2c-0.4,0.4-0.4,1.2-0.4,2
		c0,0.8,0,1.6,0.4,2c0.4,0.4,0.8,0.8,1.2,1.2c0.4,0.4,1.2,0.4,1.6,0.8c0.8,0,1.2,0,2,0c1.6,0,3.2-0.4,4-0.8s1.6-1.2,2-2
		s0.8-1.6,0.8-2.4s0-1.6,0-2L289.6,88L289.6,88z"/>
	<path fill="#FFFFFF" d="M314.8,113.6c-1.6,1.2-4,1.6-7.2,1.6c-0.8,0-1.6,0-2.8,0c-0.8,0-1.6,0-2.8-0.4v-7.2c0.8,0,1.6,0,2.4,0.4
		c0.8,0,1.6,0,2.8,0c1.2,0,2-0.4,2.8-1.2c0.4-0.8,0.8-1.6,0.8-2.8c0-0.8,0-1.2-0.4-2l-11.2-30.4h9.6l7.2,22l0,0l7.2-22.4h9.2
		L318.8,108C317.6,110.8,316.4,112.4,314.8,113.6z"/>
</g>
<g opacity="0.7">
	<path fill="#FFFFFF" d="M333.6,77.6c0.4-1.6,1.2-2.8,2.4-3.6s2.4-1.6,4-2s3.2-0.8,5.2-0.8c1.2,0,2.8,0,4.4,0.4
		c1.2,0.4,2.8,0.8,4,1.6c1.2,0.8,2,1.6,2.8,3.2c0.8,1.2,1.2,3.2,1.2,5.2v17.2c0,1.6,0.8,2.4,2.4,2.4c0.4,0,0.8,0,1.2-0.4v3.2
		c-0.4,0-0.8,0-1.2,0c-0.4,0-0.8,0-1.2,0c-0.8,0-1.6,0-2.4-0.4c-0.4-0.4-1.2-0.8-1.2-1.2c-0.4-0.4-0.4-1.2-0.8-1.6
		c0-0.8,0-1.6,0-2.4l0,0c-0.8,1.2-1.6,2-2,2.8c-0.8,0.8-1.6,1.6-2.4,2s-2,0.8-3.2,1.2c-1.2,0.4-2.4,0.4-4,0.4s-2.8,0-4.4-0.4
		c-1.2-0.4-2.4-0.8-3.6-1.6c-0.8-0.8-1.6-1.6-2.4-2.8c-0.4-1.2-0.8-2.8-0.8-4.4c0-2.4,0.4-4,1.6-5.2c0.8-1.2,2.4-2.4,4-2.8
		c1.6-0.8,3.6-1.2,5.6-1.2c2-0.4,4-0.4,6.4-0.8c0.8,0,1.6,0,2.4-0.4c0.8,0,1.2-0.4,1.6-0.8s0.8-0.8,0.8-1.2s0.4-1.2,0.4-2
		c0-1.2-0.4-2.4-0.8-3.2c-1.6-0.8-2-1.6-2.8-2c-0.8-0.4-1.6-0.8-2.8-1.2c-1.2,0-2-0.4-3.2-0.4c-2.4,0-4.4,0.4-6,1.6
		c-1.6,1.6-2.8,3.6-2.8,6h-4C332.4,80.4,332.8,78.8,333.6,77.6z M353.2,87.2c-0.4,0.4-0.8,0.8-1.6,0.8c-0.8,0.4-1.2,0.4-2,0.4
		c-1.6,0.4-3.6,0.4-5.2,0.8c-1.6,0.4-3.6,0.4-4.8,1.2c-1.6,0.4-2.8,1.2-3.6,2c-0.8,0.8-1.2,2-1.2,3.6c0,0.8,0,2,0.4,2.8
		c0.4,0.8,0.8,1.6,1.6,2c0.8,0.4,1.6,0.8,2.4,1.2s1.6,0.4,2.8,0.4c1.6,0,2.8-0.4,4.4-0.8c1.2-0.4,2.8-1.2,3.6-2c1.2-0.8,2-2,2.4-3.2
		s0.8-2.8,0.8-4.4L353.2,87.2L353.2,87.2L353.2,87.2z"/>
	<path fill="#FFFFFF" d="M366.4,72.4v6l0,0c0.8-2.4,2.4-4,4.4-5.2c2-1.2,4.4-2,7.2-2c2.4,0,4.4,0.4,6.4,1.2c1.6,0.8,3.2,2,4.4,3.6
		c1.6,2,2.4,4,3.2,6c0.4,2,0.8,4.4,0.8,6.4s-0.4,4.8-0.8,6.8s-1.6,4-2.8,5.6c-1.2,1.6-2.8,2.8-4.4,3.6c-1.6,0.8-4,1.2-6.4,1.2
		c-1.2,0-2.4,0-3.6-0.4s-2.4-0.8-3.2-1.2c-0.8-0.4-2-1.2-2.8-2.4c-0.8-0.8-1.2-2-1.6-3.2l0,0v18h-4v-44H366.4L366.4,72.4z M388,83.6
		c-0.4-1.6-1.2-3.2-2-4.4c-0.8-1.2-1.6-2.4-3.2-3.2c-1.2-0.8-2.8-1.2-4.8-1.2c-2.4,0-4,0.4-5.6,1.2s-2.8,1.6-3.6,3.2
		c-0.8,1.2-1.6,2.8-2,4.4s-0.4,3.6-0.4,5.2c0,1.6,0,3.2,0.4,4.8s1.2,3.2,2,4.4s2,2.4,3.6,3.2c1.6,0.8,3.2,1.2,5.2,1.2
		s3.6-0.4,4.8-1.2c1.2-0.8,2.4-2,3.2-3.2c0.8-1.2,1.6-2.8,2-4.4s0.4-3.2,0.4-4.8C388.8,86.8,388.4,85.2,388,83.6z"/>
	<path fill="#FFFFFF" d="M400,60v6.4h-4V60H400z M400,72.4v32.4h-4V72.4H400z"/>
</g>
<rect x="277" y="109.3" fill="#F4B723" width="123" height="45"/>
<g>
	<path fill="#FFFFFF" d="M314.8,125c1.8,1.7,2.8,4,2.8,7c0,3-0.9,5.4-2.7,7.1c-1.8,1.8-4.5,2.6-8.2,2.6H300v-19.3h6.8
		C310.3,122.4,312.9,123.3,314.8,125z M311.6,136.5c1.1-1,1.6-2.4,1.6-4.3c0-1.9-0.5-3.4-1.6-4.4c-1.1-1-2.7-1.5-4.9-1.5h-2.4V138
		h2.7C309,138,310.5,137.5,311.6,136.5z"/>
	<path fill="#FFFFFF" d="M337.5,139.1c-2,1.9-4.4,2.9-7.2,2.9c-2.9,0-5.3-1-7.2-2.9c-2-1.9-2.9-4.3-2.9-7.1c0-2.8,1-5.2,2.9-7.1
		c2-1.9,4.4-2.9,7.2-2.9c2.9,0,5.3,1,7.2,2.9c2,1.9,2.9,4.3,2.9,7.1C340.5,134.8,339.5,137.2,337.5,139.1z M336.1,132
		c0-1.7-0.6-3.2-1.7-4.4c-1.1-1.2-2.5-1.8-4.1-1.8c-1.6,0-3,0.6-4.1,1.8c-1.1,1.2-1.7,2.7-1.7,4.4c0,1.7,0.6,3.2,1.7,4.4
		c1.1,1.2,2.5,1.8,4.1,1.8c1.6,0,3-0.6,4.1-1.8C335.5,135.2,336.1,133.7,336.1,132z"/>
	<path fill="#FFFFFF" d="M353,138c2.1,0,3.9-0.8,5.2-2.5l2.8,2.9c-2.2,2.5-4.8,3.7-7.8,3.7c-3,0-5.4-0.9-7.4-2.8
		c-1.9-1.9-2.9-4.3-2.9-7.1s1-5.3,2.9-7.2c2-1.9,4.4-2.9,7.2-2.9c3.2,0,5.8,1.2,8,3.6l-2.7,3c-1.4-1.7-3.1-2.5-5.1-2.5
		c-1.6,0-3,0.5-4.2,1.6s-1.7,2.5-1.7,4.3c0,1.8,0.5,3.2,1.6,4.3C350.1,137.4,351.5,138,353,138z"/>
	<path fill="#FFFFFF" d="M368.9,126.3c-0.4,0.3-0.6,0.8-0.6,1.4c0,0.6,0.3,1,0.8,1.3c0.5,0.3,1.7,0.7,3.5,1.2c1.8,0.5,3.3,1.1,4.3,2
		c1,0.9,1.5,2.2,1.5,4c0,1.7-0.6,3.1-1.9,4.2c-1.3,1.1-3,1.6-5.1,1.6c-3.1,0-5.8-1.1-8.3-3.4l2.6-3.2c2.1,1.8,4,2.7,5.8,2.7
		c0.8,0,1.4-0.2,1.9-0.5c0.5-0.3,0.7-0.8,0.7-1.4c0-0.6-0.2-1-0.7-1.4c-0.5-0.3-1.4-0.7-2.9-1c-2.3-0.5-3.9-1.2-4.9-2.1
		c-1-0.9-1.6-2.2-1.6-4c0-1.8,0.7-3.2,2-4.2c1.3-1,3-1.5,4.9-1.5c1.3,0,2.6,0.2,3.9,0.7c1.3,0.4,2.4,1.1,3.4,1.9l-2.2,3.2
		c-1.7-1.3-3.4-1.9-5.2-1.9C369.9,125.8,369.3,126,368.9,126.3z"/>
</g>
</svg>
